<svg version="1" xmlns="http://www.w3.org/2000/svg" width="682.667" height="682.667" viewBox="0 0 512.000000 512.000000"><path d="M67.5 2.8c-5.3.6-15.8 4.2-22.7 7.7C23.5 21.2 8.1 41 2.7 64.2c-.9 4-1.2 39.1-1.2 145.1-.1 139.3-.1 139.8 2 146 4.2 12.6 11.6 25.8 18.2 32.5.7.7 1.3 1.8 1.3 2.3 0 .5.4.9 1 .9.5 0 2 1 3.3 2.2 4.1 4 9.1 7.7 12 9 1.5.7 2.7 1.7 2.7 2.1 0 .5.4.6.9.3s1.4.1 2.1.9c.7.8 2.1 1.5 3.1 1.5s2.1.5 2.4 1c.4.6 1.1.8 1.6.5.5-.4.9-.1.9.5 0 .7.6 1 1.4.7.7-.3 1.7-.2 2.2.3.5.4 2.9 1.1 5.4 1.5 2.5.4 5.6.9 7 1.1 1.4.2 6.6.6 11.6.8 5 .2 9.6.6 10.2 1 .6.3 1.3.3 1.6-.2.3-.6 6.1-.8 6.1-.2 0 .1 26.7.2 59.3.2l59.2.1.1 12.1c0 6.7.2 13.4.5 15.1 1.1 7.9 2.7 15.2 4 17.7.8 1.5 1.5 3.1 1.5 3.5.3 2.5 5 10.7 9.4 16.8 8.4 11.4 16.4 17.9 30.4 24.9 12.9 6.5 12.6 6.5 102.6 6.5h81l7.8-2.4c6.9-2.1 22.4-9.5 23.7-11.4.3-.3 2.3-2.1 4.6-3.8 5.7-4.5 15.3-16.3 19.2-23.6 1.8-3.4 4.5-10 6-14.7l2.7-8.5v-105c0-57.8-.3-107.8-.7-111.3-1.4-12.6-6.3-18.5-59.4-71.6C412.8 121 398.1 107 396 107c-.6 0-1-.3-1-.8 0-.9-6.7-3.9-10.7-4.8-1.5-.3-6.1-.7-10-.8-4 0-7.3-.3-7.3-.6 0-.7-9.1-.3-9.7.4-.3.3-1.4.1-2.4-.4-1.2-.7-2-.7-2.4 0-.4.6-1.2.7-1.8.3-1.6-1-7.7-1-10.4-.1-1.3.4-2.3.4-2.3 0 0-.9-7.2-.8-8.8.2-.7.4-1.8.4-2.4-.1-1.3-.8-9.8-.7-10.6.2-.3.2-1.3 0-2.3-.6-1.3-.7-2.6-.6-4 .2-1.5.7-2.4.8-3.2 0-.7-.7-1.6-.7-2.9 0-1 .5-1.8.6-1.8.2 0-.5-1.2-.8-2.7-.7-1.6.1-2.8.3-2.8.4 0 .1-2.2.3-5 .4-2.7.1-7.3.6-10 1l-5 .7-38.1-37.8c-51.9-51.5-54.8-54.2-63.6-58.6L167.5 2l-48.5.2c-26.7.1-49.8.3-51.5.6zM164.6 43c4.8 2.7 9.2 6.7 10.9 10 .8 1.6 1.4 7.1 1.5 15 .3 16.2.8 33.5 1 33.5.1 0 .3 1.2.5 2.7.4 2.7 3.4 7.7 6.5 10.8 3.7 3.6 6.4 4 29 4.5 23.8.5 30.1 1 33.4 2.7 2.1 1 6.6 5.6 6.7 6.7 0 .3.3 2.6.7 5.1.4 2.5.7 52.4.7 111 0 119.1.6 109.1-7.3 116.1-6.4 5.6-7.6 6.4-12.5 8.8-5.3 2.6-9.1 3.4-15.9 3.5-2.7 0-4.8.4-4.8.8s-1.1.3-2.5-.2-2.5-.6-2.5-.2c0 .4-1.1.7-2.5.7s-2.5-.5-2.5-1c0-.7-.3-.7-.8 0-.9 1.3-7.2 1.5-7.2.3 0-.5-.6-.6-1.2-.2-1.6 1-22.9 1.1-23.5.1-.2-.4-.9-.5-1.4-.1-1.9 1.1-5.8 1.4-6.4.4-.4-.6-1.1-.7-1.8-.3-1.5.9-71.7 1-71.7 0 0-.4-.9-.3-2 .3-1.5.8-2 .8-2-.2s-.2-1-.9.1c-.6.9-1.1 1-1.5.2-.5-.7-1.3-.8-2.5-.1-1 .5-2 .8-2.2.6-.2-.2-2.9-.7-5.9-1.1-15.5-1.8-30.7-15.9-32.6-30.3-.9-6.8-.4-133 1-248.2.3-27.7 1-34 3.8-34 .4 0 .8-.6.8-1.3 0-2.1 8.2-10.1 13.3-13.2 8.6-5 11-5.2 57.3-5.4 42.5-.2 43.2-.2 47 1.9zm205.6 97.4c.5.8.8.7.8-.1 0-.7.9-1 2.3-.7 1.2.2 3.2.6 4.3.8 5.4 1 13.4 7.7 13.4 11 0 .8.3 1.7.8 2 .9.5 1.4 9.7 1.6 27.3 0 6.8.4 12.3.8 12.3s.4 1 0 2.2c-1.7 4.8-.2 10.3 4 15 5.6 6.1 8.1 6.8 25.1 7.3 29.9.9 36.6 1.4 39.4 2.9 3.3 1.7 6 4.7 7.5 8.4.8 2 1.9 27.1 1.8 42.7 0 .5 0 5-.1 10-.1 4.9 0 11 .1 13.5.1 3.8.2 17.4.1 24.5v8.5c0 3.6.1 7.8 0 9.5 0 1.6 0 7 .1 12 0 8.4 0 10.6-.2 13.7-.1 2-.1 62.7 0 69.3.1 3.3.2 6.4.2 7 0 4.1-1.7 11.5-3.2 14-4.6 7.5-17.1 15.3-28.6 17.9-4.8 1.1-20.8 1.3-76.7 1.4-66.3 0-71-.1-77.7-1.9-7.7-2.1-9.9-3.1-14.3-6.9-5.7-4.8-8.8-8.5-11.3-13.8-3.4-7.2-4-11.2-4.3-30-.3-15.8-.2-16.4 2-18.3 1.2-1 2.5-1.9 2.8-1.9.6 0 4-2.8 9.1-7.4 9-8.2 16.7-20.1 21-32.7 3-8.7 3.7-9.9 4.8-8.4.4.6 3.1 2.8 6 5 2.8 2.1 5.2 4.3 5.2 4.8 0 .4.4.6.9.3.5-.4 1.1-.3 1.3.1.1.5 4.1 3.7 8.8 7.2 4.7 3.5 8.7 6.8 8.8 7.3.2.4 1 .8 1.7.8.8 0 2 .8 2.7 1.7.7 1 3.6 3.4 6.3 5.2 2.8 1.9 5.2 3.8 5.5 4.1.3.3 5.2 4.1 11 8.5 11.6 8.8 12.4 9.4 14.5 11.3 1.7 1.6 3.5 1.6 3.6-.1.5-4.3.3-6.3-.6-6.9-.6-.5-.5-.8.4-.8 1 0 1.1-.3.3-1.3-.6-.7-.7-1.8-.2-2.7.4-.7.4-2.4 0-3.6-.5-1.3-.6-2.5-.2-2.8.4-.2.7-8.1.7-17.5 0-16.3.2-17.7 2.9-17.2.4.1 1.4-.4 2.2-1 .8-.6 1.4-.8 1.4-.3 0 1.3 52 1.2 52.1-.1.3-5 .3-36.9-.1-37.4-.3-.4-13.4-.7-29.2-.6-15.9 0-28.8-.2-28.9-.5-.1-.3-.2-12.3-.3-26.7-.1-14.4-.4-26.4-.7-26.7-.3-.3-2.8 1.3-5.7 3.4-2.9 2.2-5.5 4-5.9 4-.3 0-1.1.6-1.7 1.4-1.1 1.3-28.4 22.3-31.4 24.1-1 .5-1.9 1.2-2.2 1.6-1.1 1.2-23 17.9-23.5 17.9-.3 0-1.5.9-2.7 2-1.2 1.1-2.5 2-2.9 2-.5 0-.8-40.2-.9-89.4v-89.4l37.2.1c24.9.1 37.5.4 38 1.1z"/><path d="M136.8 165.7c-.2 1.6-.3 13.7-.3 27.1 0 20.8-.2 24.3-1.5 24.7-.8.2-13.8.4-28.9.4-15 0-27.6.2-27.8.5-.3.3-.6 8.9-.6 19.3l-.1 18.8 29.5.5 29.4.5v26c0 14.3.1 26.3.3 26.8.4.9 3.7-.8 7.7-4 4.6-3.6 4.6-3.6 10.9-8.3 3.3-2.4 6.7-4.9 7.5-5.6.9-.7 13.8-10.6 28.6-22 14.9-11.5 27.2-21 27.5-21.3.3-.4 2.3-1.9 4.5-3.6 4.3-3.2 4.8-3.6 8.3-6.4l2.3-1.9-3.6-2.9c-2-1.5-4.8-3.8-6.3-5.1-1.5-1.2-5.5-4.3-8.9-6.9-3.5-2.5-6.3-5-6.3-5.5 0-.4-.6-.8-1.2-.8-.7 0-3-1.5-5-3.3-2-1.7-5.9-4.8-8.5-6.7-5.6-4.1-8-6-9.8-7.8-.8-.6-1.8-1.2-2.4-1.2-.6 0-1.1-.5-1.1-1.1 0-.5-.4-.7-1-.4-.5.3-1 0-1-.8 0-.7-1.1-1.9-2.5-2.5-1.4-.6-2.5-1.6-2.5-2.2 0-.5-.5-1-1.1-1-.6 0-2.3-1-3.8-2.3-1.5-1.2-4-3.1-5.5-4.2s-4.2-3.2-5.9-4.7c-1.8-1.5-3.8-2.8-4.5-2.8-.7 0-1-.5-.7-1 .3-.6.1-1-.5-1s-1.6-.4-2.3-1c-3.6-2.9-11.7-9-12.1-9-.2 0-.5 1.2-.8 2.7z"/></svg>